<svg xmlns="http://www.w3.org/2000/svg" width="1200" height="1400" viewBox="0 0 1200 1400" fill="none">
  <rect width="1200" height="1400" rx="48" fill="#071322"/>
  <rect x="66" y="66" width="1068" height="1268" rx="36" stroke="#6FEDFF" stroke-opacity="0.26" stroke-width="2"/>
  <rect x="106" y="106" width="988" height="1188" rx="28" fill="url(#paint0_linear_1_2)" stroke="#9EDBFF" stroke-opacity="0.2" stroke-width="2"/>
  <path d="M180 260H1020" stroke="#6FEDFF" stroke-opacity="0.18" stroke-width="2"/>
  <path d="M180 1140H1020" stroke="#6FEDFF" stroke-opacity="0.18" stroke-width="2"/>
  <circle cx="600" cy="530" r="170" stroke="#6FEDFF" stroke-opacity="0.52" stroke-width="6"/>
  <circle cx="600" cy="530" r="260" stroke="#6FEDFF" stroke-opacity="0.16" stroke-width="2" stroke-dasharray="14 12"/>
  <path d="M600 316V220" stroke="#FFCC6C" stroke-width="4" stroke-linecap="round"/>
  <path d="M600 844V748" stroke="#FFCC6C" stroke-width="4" stroke-linecap="round"/>
  <path d="M814 530H910" stroke="#FFCC6C" stroke-width="4" stroke-linecap="round"/>
  <path d="M290 530H386" stroke="#FFCC6C" stroke-width="4" stroke-linecap="round"/>
  <path d="M408 924C455 811 520 754 600 754C680 754 745 811 792 924" stroke="#6FEDFF" stroke-opacity="0.56" stroke-width="8" stroke-linecap="round"/>
  <circle cx="600" cy="470" r="84" stroke="#6FEDFF" stroke-opacity="0.56" stroke-width="8"/>
  <rect x="274" y="1006" width="652" height="144" rx="20" fill="#08192E" stroke="#6FEDFF" stroke-opacity="0.2"/>
  <text x="600" y="1070" fill="#EDF4FF" font-family="Avenir Next, Segoe UI, sans-serif" font-size="36" font-weight="600" text-anchor="middle">Add profile photo</text>
  <text x="600" y="1118" fill="#91A4C2" font-family="Avenir Next, Segoe UI, sans-serif" font-size="24" text-anchor="middle">Replace this SVG in assets/ or update the photo path in content.js</text>
  <defs>
    <linearGradient id="paint0_linear_1_2" x1="600" y1="106" x2="600" y2="1294" gradientUnits="userSpaceOnUse">
      <stop stop-color="#0A1B2E"/>
      <stop offset="1" stop-color="#040B16"/>
    </linearGradient>
  </defs>
</svg>
